<?xml version="1.0" encoding="UTF-8"?>
<svg xmlns="http://www.w3.org/2000/svg" xmlns:xlink="http://www.w3.org/1999/xlink" width="16px" height="16px" viewBox="0 0 16 16" version="1.1">
<g id="surface1">
<path style=" stroke:none;fill-rule:nonzero;fill:rgb(12.941176%,58.823529%,95.294118%);fill-opacity:1;" d="M 8 0 C 3.589844 0 0 3.589844 0 8 C 0 12.410156 3.589844 16 8 16 C 12.410156 16 16 12.410156 16 8 C 16 3.589844 12.410156 0 8 0 Z M 8 0 "/>
<path style=" stroke:none;fill-rule:nonzero;fill:rgb(98.039216%,98.039216%,98.039216%);fill-opacity:1;" d="M 12.054688 6.304688 L 7.722656 10.636719 C 7.589844 10.769531 7.421875 10.832031 7.25 10.832031 C 7.078125 10.832031 6.910156 10.769531 6.777344 10.636719 L 4.613281 8.472656 C 4.351562 8.210938 4.351562 7.789062 4.613281 7.527344 C 4.871094 7.269531 5.292969 7.269531 5.554688 7.527344 L 7.25 9.222656 L 11.113281 5.363281 C 11.371094 5.101562 11.792969 5.101562 12.054688 5.363281 C 12.316406 5.621094 12.316406 6.042969 12.054688 6.304688 Z M 12.054688 6.304688 "/>
</g>
</svg>
